<svg xmlns="http://www.w3.org/2000/svg" width="939" height="52"><g fill="none" fill-rule="evenodd"><g transform="translate(843 9)"><rect width="96" height="32" fill="#0E6248" rx="4"/><path d="M72.93 9a7.934 7.934 0 0 1 7.93 7.93 7.935 7.935 0 0 1-7.93 7.93A7.935 7.935 0 0 1 65 16.93 7.933 7.933 0 0 1 72.93 9zm0 1.094c-3.773 0-6.836 3.063-6.836 6.836s3.063 6.836 6.836 6.836 6.836-3.063 6.836-6.836-3.063-6.836-6.836-6.836zm-.063 3.81a2.808 2.808 0 0 1 3.983 3.958l-3.983 3.983-3.971-3.97-.131-.14a2.81 2.81 0 0 1 .13-3.831 2.81 2.81 0 0 1 3.972 0h-.002z" fill="#FFF"/><text fill="#FFF" font-family="Helvetica" font-size="16">
                            <tspan x="15" y="21">Share</tspan>
                        </text></g><text fill="#FFF" font-family="Helvetica" font-size="16" transform="translate(-1)">
                        <tspan x="0" y="30">Home</tspan>
                    </text><text fill="#FFF" font-family="Helvetica" font-size="16" transform="translate(-1)">
                        <tspan x="81" y="30">About</tspan>
                    </text><text fill="#FFF" font-family="Helvetica" font-size="16" transform="translate(-1)">
                        <tspan x="163" y="30">Projects</tspan>
                    </text><text fill="#FFF" font-family="Helvetica" font-size="16" transform="translate(-1)">
                        <tspan x="258" y="30">Partners</tspan>
                    </text><text fill="#FFF" font-family="Helvetica" font-size="16" transform="translate(-1)">
                        <tspan x="774" y="30">FAQ</tspan>
                    </text><text fill="#FFF" font-family="Helvetica" font-size="16" transform="translate(-1)">
                        <tspan x="702" y="30">News</tspan>
                    </text><text fill="#FFF" font-family="Helvetica" font-size="16" transform="translate(-1)">
                        <tspan x="614" y="30">Mission</tspan>
                    </text><path fill="#FFF" fill-rule="nonzero" d="M423.056 11.608v-1.88h-4.976V6.68h3.872V4.864h-3.872V1.88h4.976V0h-7.392v11.608h7.392zm2.362 0c.203 0 .37-.055.504-.164a.913.913 0 0 0 .28-.364l.784-2.216h4.624l.784 2.216a.894.894 0 0 0 .292.38c.13.099.3.148.508.148h1.864L430.53 0h-2.456l-4.536 11.608h1.88zm5.608-4.408h-3.456l1.256-3.536a9.46 9.46 0 0 0 .232-.66c.08-.253.157-.527.232-.82.08.288.161.557.244.808.083.25.161.47.236.656l1.256 3.552zm7.554 4.408V7.184h.816c.213 0 .375.032.484.096.11.064.21.165.3.304l2.208 3.56c.181.31.475.464.88.464h2.168l-2.704-4.176a2.062 2.062 0 0 0-.364-.428 2.409 2.409 0 0 0-.436-.308c.395-.133.744-.31 1.048-.528.304-.219.56-.47.768-.752.208-.283.367-.596.476-.94.11-.344.164-.708.164-1.092 0-.496-.085-.95-.256-1.364-.17-.413-.44-.77-.808-1.068-.368-.299-.84-.532-1.416-.7-.576-.168-1.27-.252-2.08-.252h-3.648v11.608h2.4zm1.232-6.112h-1.232V1.824h1.248c.747 0 1.303.152 1.668.456.365.304.548.73.548 1.28 0 .277-.043.533-.128.768s-.219.439-.4.612c-.181.173-.413.31-.696.408a3.06 3.06 0 0 1-1.008.148zm11.362 6.112V1.936h3.392V0h-9.192v1.936h3.392v9.672h2.408zm7.306 0v-5h5.112v5h2.416V0h-2.416v4.928h-5.112V0h-2.416v11.608h2.416zm16.276 0v-5h5.112v5h2.416V0h-2.416v4.928h-5.112V0h-2.416v11.608h2.416zm17.402 0v-1.88h-4.976V6.68h3.872V4.864h-3.872V1.88h4.976V0h-7.392v11.608h7.392zm2.362 0c.203 0 .37-.055.504-.164a.913.913 0 0 0 .28-.364l.784-2.216h4.624l.784 2.216a.894.894 0 0 0 .292.38c.13.099.3.148.508.148h1.864L499.632 0h-2.456l-4.536 11.608h1.88zm5.608-4.408h-3.456l1.256-3.536a9.46 9.46 0 0 0 .232-.66c.08-.253.157-.527.232-.82.08.288.161.557.244.808.083.25.161.47.236.656l1.256 3.552zm7.554 4.408V7.184h.816c.213 0 .375.032.484.096.11.064.21.165.3.304l2.208 3.56c.181.31.475.464.88.464h2.168l-2.704-4.176a2.062 2.062 0 0 0-.364-.428 2.409 2.409 0 0 0-.436-.308c.395-.133.744-.31 1.048-.528.304-.219.56-.47.768-.752.208-.283.367-.596.476-.94.11-.344.164-.708.164-1.092 0-.496-.085-.95-.256-1.364-.17-.413-.44-.77-.808-1.068-.368-.299-.84-.532-1.416-.7-.576-.168-1.27-.252-2.08-.252h-3.648v11.608h2.4zm1.232-6.112h-1.232V1.824h1.248c.747 0 1.303.152 1.668.456.365.304.548.73.548 1.28 0 .277-.043.533-.128.768s-.219.439-.4.612c-.181.173-.413.31-.696.408a3.06 3.06 0 0 1-1.008.148zm11.362 6.112V1.936h3.392V0h-9.192v1.936h3.392v9.672h2.408zm-102.196 19v-4.632h4.176v-1.888h-4.176V20.88h4.976V19h-7.392v11.608h2.416zm11.858.128c.89 0 1.701-.15 2.432-.452a5.589 5.589 0 0 0 1.876-1.244 5.528 5.528 0 0 0 1.208-1.88 6.395 6.395 0 0 0 .428-2.36c0-.843-.143-1.625-.428-2.348a5.567 5.567 0 0 0-1.208-1.88 5.559 5.559 0 0 0-1.876-1.248c-.73-.301-1.541-.452-2.432-.452-.89 0-1.701.15-2.432.452a5.636 5.636 0 0 0-1.88 1.244 5.495 5.495 0 0 0-1.212 1.876 6.367 6.367 0 0 0-.428 2.356c0 .848.143 1.635.428 2.36.285.725.69 1.352 1.212 1.88.523.528 1.15.943 1.88 1.244.73.301 1.541.452 2.432.452zm0-2.024c-.544 0-1.032-.09-1.464-.268a2.992 2.992 0 0 1-1.1-.772 3.43 3.43 0 0 1-.692-1.228 5.213 5.213 0 0 1-.24-1.644c0-.608.08-1.153.24-1.636.16-.483.39-.893.692-1.232a2.967 2.967 0 0 1 1.1-.776c.432-.179.92-.268 1.464-.268.544 0 1.03.09 1.46.268.43.179.795.437 1.096.776.301.339.532.75.692 1.232.16.483.24 1.028.24 1.636 0 .613-.08 1.161-.24 1.644-.16.483-.39.892-.692 1.228a3.002 3.002 0 0 1-1.096.772c-.43.179-.916.268-1.46.268zm12.506 2.024c.757 0 1.437-.12 2.04-.36s1.115-.573 1.536-1c.421-.427.745-.935.972-1.524.227-.59.34-1.236.34-1.94V19h-2.4v6.912c0 .427-.056.81-.168 1.152a2.445 2.445 0 0 1-.488.872c-.213.24-.475.425-.784.556-.31.13-.659.196-1.048.196-.395 0-.747-.065-1.056-.196-.31-.13-.57-.316-.784-.556a2.437 2.437 0 0 1-.488-.872 3.682 3.682 0 0 1-.168-1.152V19h-2.4v6.912c0 .704.113 1.35.34 1.94.227.59.55 1.097.972 1.524.421.427.935.76 1.54 1s1.287.36 2.044.36zm9.346-.128v-6.712a13.479 13.479 0 0 0-.048-1.048l5.784 7.352c.123.15.248.255.376.316s.285.092.472.092h1.24V19h-2.12v6.64a11.578 11.578 0 0 0 .064 1.136l-5.824-7.4a1.662 1.662 0 0 0-.176-.192.755.755 0 0 0-.168-.116.565.565 0 0 0-.196-.056 2.406 2.406 0 0 0-.26-.012h-1.264v11.608h2.12zm14.77 0c.89 0 1.701-.144 2.432-.432a5.531 5.531 0 0 0 1.876-1.2 5.314 5.314 0 0 0 1.208-1.836 6.241 6.241 0 0 0 .428-2.34c0-.843-.143-1.619-.428-2.328a5.361 5.361 0 0 0-1.208-1.836 5.486 5.486 0 0 0-1.876-1.204c-.73-.288-1.541-.432-2.432-.432h-4.464v11.608h4.464zm0-1.88h-2.048V20.88h2.048c.544 0 1.03.09 1.46.272.43.181.793.44 1.092.776.299.336.528.747.688 1.232.16.485.24 1.032.24 1.64 0 .613-.08 1.163-.24 1.648-.16.485-.39.897-.688 1.236a2.946 2.946 0 0 1-1.092.776c-.43.179-.916.268-1.46.268zm7.906 1.88c.203 0 .37-.055.504-.164a.913.913 0 0 0 .28-.364l.784-2.216h4.624l.784 2.216a.894.894 0 0 0 .292.38c.13.099.3.148.508.148h1.864L479.578 19h-2.456l-4.536 11.608h1.88zm5.608-4.408h-3.456l1.256-3.536a9.46 9.46 0 0 0 .232-.66c.08-.253.157-.527.232-.82.08.288.161.557.244.808.083.25.161.47.236.656l1.256 3.552zm8.842 4.408v-9.672h3.392V19h-9.192v1.936h3.392v9.672h2.408zm7.306 0V19h-2.416v11.608h2.416zm7.754.128c.89 0 1.701-.15 2.432-.452a5.589 5.589 0 0 0 1.876-1.244 5.528 5.528 0 0 0 1.208-1.88 6.395 6.395 0 0 0 .428-2.36c0-.843-.143-1.625-.428-2.348a5.567 5.567 0 0 0-1.208-1.88 5.559 5.559 0 0 0-1.876-1.248c-.73-.301-1.541-.452-2.432-.452-.89 0-1.701.15-2.432.452a5.636 5.636 0 0 0-1.88 1.244 5.495 5.495 0 0 0-1.212 1.876 6.367 6.367 0 0 0-.428 2.356c0 .848.143 1.635.428 2.36.285.725.69 1.352 1.212 1.88.523.528 1.15.943 1.88 1.244.73.301 1.541.452 2.432.452zm0-2.024c-.544 0-1.032-.09-1.464-.268a2.992 2.992 0 0 1-1.1-.772 3.43 3.43 0 0 1-.692-1.228 5.213 5.213 0 0 1-.24-1.644c0-.608.08-1.153.24-1.636.16-.483.39-.893.692-1.232a2.967 2.967 0 0 1 1.1-.776c.432-.179.92-.268 1.464-.268.544 0 1.03.09 1.46.268.43.179.795.437 1.096.776.301.339.532.75.692 1.232.16.483.24 1.028.24 1.636 0 .613-.08 1.161-.24 1.644-.16.483-.39.892-.692 1.228a3.002 3.002 0 0 1-1.096.772c-.43.179-.916.268-1.46.268zm9.874 1.896v-6.712a13.479 13.479 0 0 0-.048-1.048l5.784 7.352c.123.15.248.255.376.316s.285.092.472.092h1.24V19h-2.12v6.64a11.578 11.578 0 0 0 .064 1.136l-5.824-7.4a1.662 1.662 0 0 0-.176-.192.755.755 0 0 0-.168-.116.565.565 0 0 0-.196-.056 2.406 2.406 0 0 0-.26-.012h-1.264v11.608h2.12zm-93.226 19.128c.96 0 1.788-.155 2.484-.464a4.537 4.537 0 0 0 1.748-1.36l-.952-1.016a.443.443 0 0 0-.336-.144c-.075 0-.144.016-.208.048s-.125.072-.184.12a3.23 3.23 0 0 1-.508.384 2.75 2.75 0 0 1-.536.248c-.19.064-.395.11-.616.136-.221.027-.468.04-.74.04-.459 0-.89-.087-1.292-.26a2.987 2.987 0 0 1-1.056-.764 3.661 3.661 0 0 1-.712-1.236c-.173-.488-.26-1.044-.26-1.668 0-.619.08-1.17.24-1.656.16-.485.385-.895.676-1.228.29-.333.639-.588 1.044-.764.405-.176.85-.264 1.336-.264.437 0 .799.045 1.084.136.285.09.523.192.712.304.19.112.35.213.48.304.13.09.26.136.388.136s.23-.027.304-.08a.748.748 0 0 0 .184-.184l.808-1.104c-.224-.224-.476-.43-.756-.62s-.585-.35-.916-.484a5.908 5.908 0 0 0-1.068-.312 6.269 6.269 0 0 0-1.212-.112c-.57 0-1.108.065-1.612.196-.504.13-.97.32-1.396.568-.427.248-.81.548-1.148.9a5.546 5.546 0 0 0-.868 1.184 5.77 5.77 0 0 0-.548 1.436A7.013 7.013 0 0 0 415 43.8c0 .859.13 1.65.392 2.376a5.496 5.496 0 0 0 1.12 1.88c.485.528 1.075.94 1.768 1.236.693.296 1.475.444 2.344.444zm13.026-.128v-1.88h-4.976V44.68h3.872v-1.816h-3.872V39.88h4.976V38h-7.392v11.608h7.392zm6.338 0c.688 0 1.297-.087 1.828-.26.53-.173.977-.415 1.34-.724.363-.31.639-.675.828-1.096.19-.421.284-.877.284-1.368 0-1.339-.773-2.19-2.32-2.552.352-.123.656-.272.912-.448s.465-.372.628-.588c.163-.216.283-.447.36-.692.077-.245.116-.501.116-.768 0-.475-.08-.904-.24-1.288a2.39 2.39 0 0 0-.764-.98c-.35-.27-.8-.477-1.352-.624-.552-.147-1.217-.22-1.996-.22h-4.12v11.608h4.496zm-.52-6.648h-1.576v-3.136h1.72c.336 0 .627.028.872.084.245.056.448.145.608.268.16.123.279.285.356.488.077.203.116.448.116.736 0 .283-.047.524-.14.724-.093.2-.228.361-.404.484a1.79 1.79 0 0 1-.656.268 4.3 4.3 0 0 1-.896.084zm.48 4.808h-2.056v-3.176h2.04c.363 0 .668.035.916.104.248.07.45.17.604.3.155.13.267.29.336.476.07.187.104.397.104.632 0 .213-.03.42-.088.62-.059.2-.163.377-.312.532a1.59 1.59 0 0 1-.596.372c-.248.093-.564.14-.948.14zm10.962 1.968c.757 0 1.437-.12 2.04-.36s1.115-.573 1.536-1c.421-.427.745-.935.972-1.524.227-.59.34-1.236.34-1.94V38h-2.4v6.912c0 .427-.056.81-.168 1.152a2.445 2.445 0 0 1-.488.872c-.213.24-.475.425-.784.556-.31.13-.659.196-1.048.196-.395 0-.747-.065-1.056-.196-.31-.13-.57-.316-.784-.556a2.437 2.437 0 0 1-.488-.872 3.682 3.682 0 0 1-.168-1.152V38h-2.4v6.912c0 .704.113 1.35.34 1.94.227.59.55 1.097.972 1.524.421.427.935.76 1.54 1s1.287.36 2.044.36z"/><path fill="#107052" d="M465.938 37.5a6.942 6.942 0 0 1 6.939 6.938c0 3.83-3.11 6.939-6.939 6.939S459 48.267 459 44.438s3.109-6.938 6.938-6.938z"/><path fill="#FFF" d="M465.938 38.457a5.984 5.984 0 0 1 5.982 5.981 5.984 5.984 0 0 1-5.982 5.982c-3.3 0-5.98-2.68-5.98-5.982 0-3.3 2.68-5.981 5.98-5.981z"/><path fill="#272727" d="M465.883 41.791a2.457 2.457 0 1 0-3.474 3.476 2.457 2.457 0 0 0 3.474-3.476z"/><path fill="#107253" d="M469.369 45.254a2.458 2.458 0 0 0-.011-3.463 2.458 2.458 0 0 0-3.475 0l-3.473 3.474 3.474 3.475 3.475-3.475.01-.01z"/></g></svg>