<svg xmlns="http://www.w3.org/2000/svg" xmlns:xlink="http://www.w3.org/1999/xlink" width="958" height="380"><defs><filter id="47gajhdj0a" width="115.8%" height="117.6%" x="-7.9%" y="-8.8%" filterUnits="objectBoundingBox"><feOffset in="SourceAlpha" result="shadowOffsetOuter1"/><feGaussianBlur in="shadowOffsetOuter1" result="shadowBlurOuter1" stdDeviation="10"/><feComposite in="shadowBlurOuter1" in2="SourceAlpha" operator="out" result="shadowBlurOuter1"/><feColorMatrix in="shadowBlurOuter1" values="0 0 0 0 0.062745098 0 0 0 0 0.447058824 0 0 0 0 0.325490196 0 0 0 0.16 0"/></filter><rect id="pcrfe5d2xb" width="380" height="340" x="0" y="0" rx="4"/></defs><g fill="none" fill-rule="evenodd"><text fill="#272727" font-family="Helvetica" font-size="24" transform="translate(0 20)">
                    <tspan x="0" y="23">Want to help? We are always in need of </tspan> <tspan x="0" y="52">donations, vitae ex quam. Quisque nulla </tspan> <tspan x="0" y="81">purus, elementum eu nunc at, cursus </tspan> <tspan x="0" y="110">finibus tortor. </tspan>
                </text><g transform="translate(558 20)"><use fill="#000" filter="url('#47gajhdj0a')" xlink:href="#pcrfe5d2xb"/><rect width="379" height="339" x=".5" y=".5" fill="#FFF" stroke="#FBF8F6" stroke-linejoin="square" rx="4"/></g><g transform="translate(584 49)"><rect width="331" height="39" x=".5" y="21.5" fill="#FFF" stroke="#DDD" rx="4"/><text fill="#272727" font-family="Helvetica" font-size="14">
                            <tspan x="0" y="14">Name:</tspan>
                        </text></g><g transform="translate(584 126)"><rect width="331" height="39" x=".5" y="21.5" fill="#FFF" stroke="#DDD" rx="4"/><text fill="#272727" font-family="Helvetica" font-size="14">
                            <tspan x="0" y="14">Email:</tspan>
                        </text></g><g transform="translate(584 203)"><rect width="331" height="39" x=".5" y="21.5" fill="#FFF" stroke="#DDD" rx="4"/><text fill="#272727" font-family="Helvetica" font-size="16">
                            <tspan x="16" y="46">PHP</tspan>
                        </text><path fill="#272727" fill-rule="nonzero" d="m60.656 44.056 4-4h-8z"/><path stroke="#DDD" d="M81.5 21.5v39"/><text fill="#272727" font-family="Helvetica" font-size="14">
                            <tspan x="0" y="14">Amount:</tspan>
                        </text></g><g transform="translate(584 290)"><rect width="120" height="40" fill="#0E6248" rx="4"/><text fill="#FFF" font-family="Helvetica" font-size="16">
                        <tspan x="21" y="25">Donate</tspan>
                    </text><path d="M90.93 13a7.934 7.934 0 0 1 7.93 7.93 7.935 7.935 0 0 1-7.93 7.93A7.935 7.935 0 0 1 83 20.93 7.933 7.933 0 0 1 90.93 13zm0 1.094c-3.773 0-6.836 3.063-6.836 6.836s3.063 6.836 6.836 6.836 6.836-3.063 6.836-6.836-3.063-6.836-6.836-6.836zm-.063 3.81a2.808 2.808 0 0 1 3.983 3.958l-3.983 3.983-3.971-3.97-.131-.14a2.81 2.81 0 0 1 .13-3.831 2.81 2.81 0 0 1 3.972 0h-.002z" fill="#FFF"/></g><text fill="#272727" font-family="Helvetica" font-size="16" transform="translate(0 20)">
                    <tspan x="0" y="155">Mauris eget elit pharetra neque dictum bibendum at </tspan> <tspan x="0" y="177">vestibulum sapien. Proin sodales, ex ac ornare hendrerit, </tspan> <tspan x="0" y="199">nulla nisl semper leo.</tspan>  <tspan x="0" y="243">Nulla porta dui non libero viverra mattis a nec velit. Integer </tspan> <tspan x="0" y="265">nulla tellus, dignissim eget posuere a, lobortis in justo. </tspan> <tspan x="0" y="287">Quisque hendrerit egestas neque. Donec turpis sapien, </tspan> <tspan x="0" y="309">dignissim in augue ac, venenatis interdum justo. </tspan>
                </text></g></svg>